<?xml version="1.0" standalone="no"?>
<!DOCTYPE svg PUBLIC "-//W3C//DTD SVG 20010904//EN"
 "http://www.w3.org/TR/2001/REC-SVG-20010904/DTD/svg10.dtd">
<svg version="1.0" xmlns="http://www.w3.org/2000/svg"
 width="1280.000000pt" height="1280.000000pt" viewBox="0 0 1280.000000 1280.000000"
 preserveAspectRatio="xMidYMid meet">
<metadata>
Created by potrace 1.15, written by Peter Selinger 2001-2017
</metadata>
<g transform="translate(0.000000,1280.000000) scale(0.100000,-0.100000)"
fill="#000000" stroke="none">
<path d="M5429 10747 c-328 -348 -1306 -1383 -2173 -2301 -867 -918 -1575
-1673 -1574 -1677 3 -5 3696 -3918 4201 -4449 l152 -160 3 1090 2 1090 2729 0
c1500 0 2769 3 2819 6 l92 7 0 2423 0 2424 -2820 0 -2820 0 0 1090 c0 600 -3
1090 -7 1089 -5 0 -276 -285 -604 -632z"/>
</g>
</svg>
