<?xml version="1.0" encoding="UTF-8" standalone="no"?>
<!-- Generator: Adobe Illustrator 16.0.4, SVG Export Plug-In . SVG Version: 6.00 Build 0)  -->

<svg
   xmlns:dc="http://purl.org/dc/elements/1.1/"
   xmlns:cc="http://creativecommons.org/ns#"
   xmlns:rdf="http://www.w3.org/1999/02/22-rdf-syntax-ns#"
   xmlns:svg="http://www.w3.org/2000/svg"
   xmlns="http://www.w3.org/2000/svg"
   xmlns:sodipodi="http://sodipodi.sourceforge.net/DTD/sodipodi-0.dtd"
   xmlns:inkscape="http://www.inkscape.org/namespaces/inkscape"
   version="1.1"
   id="Calque_1"
   x="0px"
   y="0px"
   width="460px"
   height="491px"
   viewBox="66.14 99.445 460 491"
   enable-background="new 66.14 99.445 460 491"
   xml:space="preserve"
   sodipodi:docname="DatabaseBlue.svg"
   inkscape:version="0.92.4 (5da689c313, 2019-01-14)"><metadata
   id="metadata3741"><rdf:RDF><cc:Work
       rdf:about=""><dc:format>image/svg+xml</dc:format><dc:type
         rdf:resource="http://purl.org/dc/dcmitype/StillImage" /><dc:title></dc:title></cc:Work></rdf:RDF></metadata><defs
   id="defs3739" /><sodipodi:namedview
   pagecolor="#ffffff"
   bordercolor="#666666"
   borderopacity="1"
   objecttolerance="10"
   gridtolerance="10"
   guidetolerance="10"
   inkscape:pageopacity="0"
   inkscape:pageshadow="2"
   inkscape:window-width="1704"
   inkscape:window-height="1361"
   id="namedview3737"
   showgrid="false"
   inkscape:zoom="1.7195224"
   inkscape:cx="277.63156"
   inkscape:cy="205.98281"
   inkscape:window-x="1720"
   inkscape:window-y="0"
   inkscape:window-maximized="0"
   inkscape:current-layer="Calque_1" />

<text
   transform="matrix(1 0 0 1 2.441406e-04 733.4688)"
   font-family="'HelveticaNeue-Bold'"
   font-size="29.764"
   id="text3732">Created by Aybige</text>

<text
   transform="matrix(1 0 0 1 2.441406e-04 763.2305)"
   font-family="'HelveticaNeue-Bold'"
   font-size="29.764"
   id="text3734">from the Noun Project</text>

<path
   style="fill:#0088aa;stroke-width:0.41122279;fill-opacity:1"
   d="M 213.3866,204.79733 C 167.31389,202.55766 125.02625,192.48767 93.720771,176.30121 66.266208,162.10586 49.937813,144.45665 47.449026,126.28652 45.66346,113.25045 52.845695,98.11016 66.617412,85.879182 92.219096,63.141728 137.35526,46.784929 189.9469,41.186062 c 13.95372,-1.485502 18.64337,-1.73369 36.80444,-1.947782 23.9789,-0.282675 38.47744,0.594917 59.42169,3.596777 72.31734,10.364969 125.18222,41.172522 129.38886,75.402703 1.99479,16.23199 -8.79381,33.70177 -29.81658,48.28144 -38.26912,26.54033 -105.71057,41.518 -172.35871,38.27813 z"
   id="path3751"
   inkscape:connector-curvature="0"
   transform="translate(66.14,99.445)" /><path
   style="fill:#0088aa;fill-opacity:1;stroke-width:0.41122279"
   d="m 221.28208,288.4718 c -39.9384,-1.28334 -76.8371,-8.08964 -107.32915,-19.79785 -38.534133,-14.79616 -62.812596,-36.03996 -66.384438,-58.08676 -0.254086,-1.56832 -0.434333,-9.88974 -0.436156,-20.13587 l -0.0031,-17.46292 2.15892,2.07008 c 12.346912,11.83885 32.21622,23.60047 54.795434,32.43611 64.87991,25.38864 154.3321,29.04036 226.78937,9.25824 33.71053,-9.20357 62.06101,-23.23511 81.3193,-40.24748 l 3.80381,-3.36021 v 16.36728 c 0,9.002 -0.19263,17.90353 -0.42806,19.78117 -1.30162,10.38063 -6.87241,20.17466 -17.10886,30.07919 -8.66183,8.38096 -17.82244,14.58493 -31.80981,21.54301 -30.09325,14.97002 -69.56431,24.42996 -112.46943,26.95527 -7.81818,0.46017 -26.59946,0.80313 -32.89782,0.60074 z"
   id="path4558"
   inkscape:connector-curvature="0"
   transform="translate(66.14,99.445)" /><path
   style="fill:#0088aa;fill-opacity:1;stroke-width:0.41122279"
   d="M 210.59028,371.37211 C 145.04232,367.42767 89.592793,348.51668 62.714133,320.93912 c -5.179355,-5.31404 -8.511268,-9.89436 -11.282236,-15.50951 -4.019363,-8.14493 -4.032166,-8.23634 -4.205427,-30.02604 l -0.150026,-18.86745 3.418981,3.03858 c 28.525597,25.35179 76.941185,43.74219 132.392165,50.28845 18.81844,2.22161 24.02631,2.48953 48.46945,2.49345 22.6326,0.004 25.9829,-0.13113 41.5335,-1.67057 45.62322,-4.51649 88.23,-17.31442 118.26682,-35.52416 8.45751,-5.12735 13.698,-9.00429 23.09101,-17.08282 l 1.74769,-1.50312 v 16.391 c 0,18.04242 -0.27478,21.57879 -2.10267,27.06121 -2.5476,7.64102 -6.79614,14.03629 -14.34624,21.59519 -9.5864,9.59757 -21.91642,17.79889 -37.50907,24.94919 -28.68258,13.15293 -61.89067,20.99954 -103.33473,24.41659 -6.87124,0.56652 -40.60122,0.83503 -48.11307,0.383 z"
   id="path4560"
   inkscape:connector-curvature="0"
   transform="translate(66.14,99.445)" /><path
   style="fill:#0088aa;fill-opacity:1;stroke-width:0.41122279"
   d="M 213.46884,454.85109 C 157.71763,451.86115 109.36506,438.37284 78.176549,417.11031 62.223734,406.2346 51.9011,393.76841 48.307698,381.03903 c -0.890881,-3.15589 -0.934844,-4.05945 -1.080152,-22.19988 l -0.151472,-18.91009 0.951829,0.85295 c 25.79324,23.11372 60.659667,38.71782 107.439777,48.08352 22.34172,4.47297 43.63621,6.62334 69.72101,7.0406 56.71353,0.90721 109.66474,-9.27022 149.90378,-28.81209 16.03571,-7.78765 29.4348,-16.54943 38.36677,-25.08836 l 2.60347,-2.4889 -0.17268,18.70501 c -0.15999,17.33014 -0.23594,18.94759 -1.03313,22.00534 -4.73312,18.15454 -22.21725,34.97436 -50.4693,48.5517 -28.24729,13.57506 -64.33155,22.3216 -105.06742,25.46752 -9.60092,0.74145 -36.65006,1.09821 -45.85134,0.60474 z"
   id="path4562"
   inkscape:connector-curvature="0"
   transform="translate(66.14,99.445)" /></svg>