<?xml version="1.0" encoding="UTF-8" standalone="no"?>
<!-- Created with Inkscape (http://www.inkscape.org/) -->
<svg xmlns:dc="http://purl.org/dc/elements/1.1/" xmlns:cc="http://creativecommons.org/ns#" xmlns:rdf="http://www.w3.org/1999/02/22-rdf-syntax-ns#" xmlns:svg="http://www.w3.org/2000/svg" xmlns="http://www.w3.org/2000/svg" xmlns:sodipodi="http://sodipodi.sourceforge.net/DTD/sodipodi-0.dtd" xmlns:inkscape="http://www.inkscape.org/namespaces/inkscape" width="744.09448819" height="1052.3622047" id="svg2" sodipodi:version="0.32" inkscape:version="0.92.3 (2405546, 2018-03-11)" sodipodi:modified="true" version="1.1" sodipodi:docname="Aiga_toiletsq_men.svg">
  <defs id="defs4"/>
  <sodipodi:namedview id="base" pagecolor="#ffffff" bordercolor="#666666" borderopacity="1.0" gridtolerance="10000" guidetolerance="10" objecttolerance="10" inkscape:pageopacity="0.0" inkscape:pageshadow="2" inkscape:zoom="0.66015625" inkscape:cx="223.80773" inkscape:cy="895.43161" inkscape:document-units="px" inkscape:current-layer="layer1" inkscape:window-width="1016" inkscape:window-height="487" inkscape:window-x="531" inkscape:window-y="42" showgrid="false" inkscape:window-maximized="0"/>
  <metadata id="metadata7">
    <rdf:RDF>
      <cc:Work rdf:about="">
        <dc:format>image/svg+xml</dc:format>
        <dc:type rdf:resource="http://purl.org/dc/dcmitype/StillImage"/>
      </cc:Work>
    </rdf:RDF>
  </metadata>
  <g inkscape:label="Layer 1" inkscape:groupmode="layer" id="layer1">
    <path style="fill:#000000" d="m 302.07468,1018.9879 c -15.81897,-5.1904 -28.34737,-16.8655 -31.92586,-29.75162 -1.42594,-5.13478 -2.10543,-110.17978 -2.11301,-326.65896 l -0.0112,-319.09031 h -8.01483 -8.01483 v 120.45053 c 0,118.07986 -0.0815,120.59391 -4.14303,127.73631 -5.26073,9.25131 -11.16854,13.58617 -22.73067,16.67855 -17.09376,4.5719 -35.7878,-4.15819 -42.50097,-19.84788 -4.3193,-10.09485 -4.038,-279.33842 0.30928,-296.02878 9.79916,-37.6215 41.53277,-68.44297 78.54331,-76.28567 19.49608,-4.1313 199.75046,-4.18226 219.18913,-0.062 19.80013,4.19692 36.80657,13.69012 51.85463,28.94588 15.47834,15.69199 22.70364,28.42132 28.09297,49.4934 3.75647,14.68761 3.96364,22.55346 3.96364,150.49169 0,116.94951 -0.41197,135.98001 -3.08199,142.37026 -4.15156,9.9361 -8.42366,14.40454 -17.95694,18.78224 -15.82006,7.2646 -35.92704,2.59108 -45.28163,-10.52495 l -4.81104,-6.74554 -0.54573,-122.72704 -0.54575,-122.72704 h -7.97001 -7.97002 v 320.65745 c 0,351.50048 0.79525,328.16116 -11.62761,341.25028 -9.81312,10.3393 -19.82011,14.2505 -36.46136,14.2505 -16.64124,0 -26.64824,-3.9112 -36.46135,-14.2505 -12.18104,-12.83433 -11.62761,-2.8865 -11.62761,-209.00564 V 607.97631 h -8.01483 -8.01483 V 796.3891 c 0,153.54409 -0.50003,189.60605 -2.70192,194.86049 -4.03669,9.63291 -12.81825,19.13041 -22.03661,23.83331 -8.88472,4.5326 -29.05582,6.6393 -37.38936,3.905 z" id="path2558" inkscape:connector-curvature="0" sodipodi:nodetypes="ccscccsccssscssscsscccccscscscccscccc"/>
    <path d="m 449.72616,117.73496 a 77.844501,75.740591 0 1 1 -155.689,0 77.844501,75.740591 0 1 1 155.689,0 z" style="opacity:1;fill:#000000;fill-opacity:1;fill-rule:evenodd;stroke:#000000;stroke-width:6.1989975;stroke-linecap:square;stroke-linejoin:miter;stroke-miterlimit:4;stroke-dasharray:none;stroke-dashoffset:0;stroke-opacity:1" id="path5075" inkscape:connector-curvature="0"/>
  </g>
</svg>