<?xml version="1.0" encoding="UTF-8" standalone="no"?>
<!-- Created with Inkscape (http://www.inkscape.org/) -->

<svg
   xmlns:dc="http://purl.org/dc/elements/1.1/"
   xmlns:cc="http://creativecommons.org/ns#"
   xmlns:rdf="http://www.w3.org/1999/02/22-rdf-syntax-ns#"
   xmlns:svg="http://www.w3.org/2000/svg"
   xmlns="http://www.w3.org/2000/svg"
   xmlns:sodipodi="http://sodipodi.sourceforge.net/DTD/sodipodi-0.dtd"
   xmlns:inkscape="http://www.inkscape.org/namespaces/inkscape"
   width="273"
   height="432.76001"
   id="svg3026"
   version="1.1"
   inkscape:version="0.92.4 (5da689c313, 2019-01-14)"
   sodipodi:docname="MicroscopeBlue.svg"
   inkscape:export-filename="C:\Users\u0094799\Documents\Icons\microscope_02.png"
   inkscape:export-xdpi="10"
   inkscape:export-ydpi="10">
  <defs
     id="defs3028" />
  <sodipodi:namedview
     id="base"
     pagecolor="#ffffff"
     bordercolor="#666666"
     borderopacity="1.0"
     inkscape:pageopacity="0.0"
     inkscape:pageshadow="2"
     inkscape:zoom="1.4"
     inkscape:cx="355.81553"
     inkscape:cy="105.96707"
     inkscape:document-units="px"
     inkscape:current-layer="layer1"
     showgrid="false"
     fit-margin-top="0"
     fit-margin-left="0"
     fit-margin-right="0"
     fit-margin-bottom="0"
     inkscape:window-width="1704"
     inkscape:window-height="1361"
     inkscape:window-x="1720"
     inkscape:window-y="0"
     inkscape:window-maximized="0" />
  <metadata
     id="metadata3031">
    <rdf:RDF>
      <cc:Work
         rdf:about="">
        <dc:format>image/svg+xml</dc:format>
        <dc:type
           rdf:resource="http://purl.org/dc/dcmitype/StillImage" />
        <dc:title></dc:title>
      </cc:Work>
    </rdf:RDF>
  </metadata>
  <g
     inkscape:label="Layer 1"
     inkscape:groupmode="layer"
     id="layer1"
     transform="translate(-248.5,-305.98221)"
     style="display:inline">
    <circle
       style="fill:#0088aa;fill-opacity:1"
       id="path5684"
       cx="387.07144"
       cy="505.8851"
       r="132.85715" />
  </g>
  <g
     inkscape:groupmode="layer"
     id="layer2"
     inkscape:label="Layer 2">
    <path
       style="display:inline;fill:#ffffff;fill-opacity:1;stroke-width:0.51545691"
       d="m 196.12489,294.49062 c 0,-4.11064 -1.50941,-7.18625 -4.5932,-9.35928 -2.15802,-1.52067 -2.32682,-1.55066 -10.15273,-1.8041 l -7.95825,-0.25773 -5.2714,-11.2401 c -7.17258,-15.29399 -8.04951,-16.09244 -17.64236,-16.06365 -5.56928,0.0168 -7.98233,0.81475 -10.44495,3.45431 l -11.80301,23.84944 -27.53529,0.25773 c -30.176347,0.28245 -28.894726,0.14502 -32.018196,3.43332 -1.974217,2.07839 -2.991218,4.84865 -2.991218,8.1479 v 2.85157 H 196.12489 Z m -65.05345,-27.4197 1.66177,-3.36988 -3.22636,-1.46936 c -1.77452,-0.80814 -5.2791,-2.42308 -7.78794,-3.58877 -2.50887,-1.16569 -5.10154,-2.11944 -5.76149,-2.11944 -2.46289,0 -4.50959,5.08573 -2.66333,6.618 0.75978,0.63056 15.12961,7.29934 15.72856,7.29934 0.21286,0 1.13483,-1.51645 2.04879,-3.36989 z m -12.49329,2.63885 c 1.22013,-0.89217 1.33292,-0.78586 -3.28788,-3.09944 -3.09113,-1.5477 -3.91422,-2.22563 -4.55012,-3.74754 -0.70013,-1.67563 -0.69254,-2.07746 0.0773,-4.09314 1.73416,-4.54082 4.61992,-5.31392 10.30851,-2.76163 1.89561,0.8505 3.54092,1.54636 3.65624,1.54636 0.71862,0 0.0125,-2.65715 -0.9501,-3.57485 -1.59818,-1.52378 -27.119574,-13.40062 -28.836834,-13.41976 -0.76382,-0.009 -1.95516,0.50644 -2.6474,1.14431 -1.3063,1.20369 -6.01525,10.89471 -6.01525,12.37937 0,1.63689 1.19121,3.42951 2.77757,4.17989 27.603494,13.05705 27.382674,12.97127 29.468014,11.44643 z m 52.18459,-17.22174 c 5.99511,-9.05005 8.85549,-16.52772 9.96136,-26.04134 1.345,-11.57085 -1.97992,-24.03561 -9.47202,-35.50954 -4.19202,-6.41992 -8.06824,-10.86797 -16.06343,-18.43317 -7.66081,-7.2488 -9.0913,-16.57667 -3.81386,-24.86926 3.48153,-5.47063 11.54948,-9.32374 17.62122,-8.41558 l 3.22406,0.18162 15.30458,-33.93862 -23.70097,-11.125692 c -0.43747,-0.20536 -38.85906,90.167662 -38.70278,90.323932 0.11116,0.11116 4.36071,2.16748 9.44356,4.56972 l 9.24155,4.3677 1.79015,-3.59288 c 0.9846,-1.9761 2.0284,-3.51716 2.31956,-3.42457 0.95232,0.30278 6.39867,8.247 8.74736,12.75918 3.68783,7.08485 5.06858,12.43908 5.10945,19.81331 0.0408,7.36748 -0.74737,10.82525 -3.99494,17.52555 -3.28104,6.76934 -4.74567,8.00008 -9.49489,7.97871 -3.53443,-0.016 -6.8063,-1.35414 -31.34542,-12.82054 -24.906104,-11.63789 -24.046394,-11.4014 -25.977774,-7.14639 -1.24998,2.75386 -1.27703,4.30303 -0.0928,5.31699 0.87753,0.75137 7.23327,3.77277 31.547854,14.99731 5.81178,2.68293 11.14511,5.4481 11.85188,6.14479 1.01887,1.00438 1.28577,1.78659 1.28864,3.77666 l 0.003,2.50993 1.99874,-1.80291 c 3.71995,-3.35546 5.9074,-4.00631 13.46499,-4.00631 6.2662,0 6.86815,0.089 9.27822,1.37149 1.41751,0.7543 3.37666,2.20403 4.35365,3.22161 0.97699,1.01757 1.91911,1.85011 2.0936,1.85011 0.17449,0 1.98118,-2.5118 4.01486,-5.58181 z m -42.02952,-32.17542 c 0.46514,-0.35436 2.15409,-3.42778 3.75324,-6.8298 4.32938,-9.21025 4.25489,-8.15958 0.68761,-9.69878 l -3.08076,-1.32928 -3.10761,6.54494 c -1.70918,3.59973 -3.23106,7.27269 -3.38195,8.16216 -0.48366,2.85104 2.84183,4.89369 5.12947,3.15076 z m -6.92457,-11.57052 c 0.60524,-0.23726 4.433,-7.87179 4.09198,-8.1615 -0.47324,-0.40204 -4.63986,-2.34513 -4.74075,-2.21086 -0.64991,0.86485 -3.38444,7.44918 -3.38444,8.14917 0,1.47792 2.46634,2.83741 4.03321,2.22319 z m 23.47421,-4.31718 c 1.03428,-0.81357 1.35817,-1.5276 1.35817,-2.99422 0,-1.05925 -0.28995,-2.31218 -0.64433,-2.7843 -0.97396,-1.29754 -30.26296,-14.78564 -32.12622,-14.79467 -3.40202,-0.0164 -5.21846,4.76717 -2.66711,7.024 1.65272,1.46195 29.98203,14.61751 31.47747,14.61751 0.68414,0 1.85504,-0.48075 2.60202,-1.06832 z m 28.51632,-32.41805 c 5.81755,-2.94212 8.63764,-7.48258 8.65544,-13.93567 0.0133,-4.80831 -1.71575,-8.73024 -5.20144,-11.79846 -2.89706,-2.5501 -6.09742,-3.66525 -10.51883,-3.66525 -2.81123,0 -4.01582,0.29073 -6.64186,1.60297 -3.52233,1.76012 -6.68886,5.21438 -7.85614,8.56995 -1.06704,3.06741 -0.81756,8.74095 0.50535,11.4921 2.86346,5.95494 7.17611,8.82604 13.73802,9.14597 3.81017,0.18576 4.37707,0.0764 7.31946,-1.41161 z m 16.55297,-70.90745 c 2.77838,-5.718742 1.13104,-7.908292 -9.69097,-12.880718 -8.26406,-3.79713 -10.20221,-4.05714 -12.74149,-1.70939 -1.15816,1.07078 -3.49912,5.493796 -3.11237,5.880526 0.0832,0.0832 2.46654,1.2362 5.29638,2.56231 13.208,6.189472 18.2736,8.480622 18.75012,8.480622 0.20059,0 0.87484,-1.05 1.49833,-2.33335 z"
       id="path2995-8"
       inkscape:connector-curvature="0"
       sodipodi:nodetypes="ssscssccsssccsscssssssssssssssssssssssssccssscsssssssssssscssssssssscssssscsssssssssssssssssssssssss" />
  </g>
</svg>
