<?xml version="1.0" encoding="UTF-8" standalone="no"?>
<svg xmlns:svg="http://www.w3.org/2000/svg" xmlns="http://www.w3.org/2000/svg" version="1.0" width="570" height="1052" viewBox="72 0 570 1052">
  <g transform="matrix(2.08276,0,0,2.08276,-786.0753,-421.7896)">
    <path transform="translate(-13.38452,-3.282995)" d="M 599.52555 250.30106 A 37.375645 36.36549 0 1 1  524.77426,250.30106 A 37.375645 36.36549 0 1 1  599.52555 250.30106 z" style="opacity:1;fill:#000000;fill-opacity:1;fill-rule:evenodd;stroke:#000000;stroke-width:2.97633791;stroke-linecap:square;stroke-linejoin:miter;stroke-miterlimit:4;stroke-dasharray:none;stroke-dashoffset:0;stroke-opacity:1"/>
    <path d="M 455.07372,542.23515 L 504.82374,542.23515 L 505.32881,683.40397 C 505.32881,683.40397 506.82147,698.58254 523.78576,698.67183 C 542.7143,698.76651 542.95699,683.40397 542.95699,683.40397 L 543.00163,541.23199 L 554.06867,541.22499 L 554.06867,683.40397 C 554.06867,683.40397 556.02943,698.67183 572.90443,698.67183 C 590.49394,698.66955 592.45447,683.40397 592.45447,683.40397 L 592.26321,542.48768 L 642.20448,542.10888 L 587.78251,354.47304 L 597.00016,354.2205 L 597.00016,354.2205 L 629.95638,463.94832 C 629.95638,463.94832 637.84014,479.2081 651.2706,473.19122 C 664.72428,467.16393 661.27111,453.08918 661.27111,453.08918 L 624.03968,329.25512 C 624.03968,329.25512 617.0271,315.4299 607.33595,308.3904 C 597.6448,301.3509 583.48936,297.52569 583.48936,297.52569 L 514.54645,297.77823 C 514.54645,297.77823 500.38559,300.50044 490.59974,307.50838 C 480.81389,314.51631 473.79311,329.3161 473.79311,329.3161 L 435.99943,451.33674 C 435.99943,451.33674 433.30727,467.64516 448.1287,472.6898 C 463.97862,478.12778 468.82939,461.18573 468.82939,461.18573 L 500.40432,354.59931 L 508.233,354.59931 L 455.07372,542.23515 z " style="opacity:1;fill:#000000;fill-opacity:1;fill-rule:evenodd;stroke:#000000;stroke-width:0.48013198px;stroke-linecap:butt;stroke-linejoin:miter;stroke-opacity:1"/>
  </g>
</svg>