<?xml version="1.0" encoding="UTF-8" standalone="no"?>
<!-- Created with Inkscape (http://www.inkscape.org/) -->

<svg
   width="744.09448819"
   height="1052.3622047"
   id="svg2"
   version="1.1"
   inkscape:version="1.1 (c68e22c387, 2021-05-23)"
   sodipodi:docname="drawing.svg"
   xmlns:inkscape="http://www.inkscape.org/namespaces/inkscape"
   xmlns:sodipodi="http://sodipodi.sourceforge.net/DTD/sodipodi-0.dtd"
   xmlns="http://www.w3.org/2000/svg"
   xmlns:svg="http://www.w3.org/2000/svg"
   xmlns:rdf="http://www.w3.org/1999/02/22-rdf-syntax-ns#"
   xmlns:cc="http://creativecommons.org/ns#"
   xmlns:dc="http://purl.org/dc/elements/1.1/">
  <sodipodi:namedview
     id="base"
     pagecolor="#ffffff"
     bordercolor="#666666"
     borderopacity="1.0"
     inkscape:pageopacity="0.0"
     inkscape:pageshadow="2"
     inkscape:zoom="0.7"
     inkscape:cx="-291.42857"
     inkscape:cy="980.71428"
     inkscape:document-units="px"
     inkscape:current-layer="layer1"
     showgrid="false"
     inkscape:window-width="3440"
     inkscape:window-height="1377"
     inkscape:window-x="-8"
     inkscape:window-y="-8"
     inkscape:window-maximized="1"
     inkscape:pagecheckerboard="0" />
  <defs
     id="defs4" />
  <metadata
     id="metadata7">
    <rdf:RDF>
      <cc:Work
         rdf:about="">
        <dc:format>image/svg+xml</dc:format>
        <dc:type
           rdf:resource="http://purl.org/dc/dcmitype/StillImage" />
        <dc:title />
      </cc:Work>
    </rdf:RDF>
  </metadata>
  <g
     id="layer1"
     inkscape:groupmode="layer"
     inkscape:label="Layer 1">
    <path
       sodipodi:type="star"
       style="fill:none;stroke:#aa0000;stroke-width:9;stroke-miterlimit:4;stroke-opacity:1;stroke-dasharray:none"
       id="path4832"
       sodipodi:sides="6"
       sodipodi:cx="-3773.9299"
       sodipodi:cy="-204.26758"
       sodipodi:r1="576.4635"
       sodipodi:r2="7.479372"
       sodipodi:arg1="0.52359878"
       sodipodi:arg2="1.0471976"
       inkscape:flatsided="false"
       inkscape:rounded="0"
       inkscape:randomized="0"
       d="m -3274.6979,83.964175 -495.4923,-281.754425 -3.7397,569.98617 -3.7397,-569.98617 -495.4924,281.75442 491.7527,-288.23175 -491.7527,-288.23175 495.4924,281.75443 3.7397,-569.98618 3.7397,569.98618 495.4923,-281.75443 -491.7527,288.23175 z"
       transform="matrix(-0.7066892,-0.40571153,0.40571153,-0.7066892,-3416.3377,-1040.31)" />
    <path
       inkscape:connector-curvature="0"
       id="path3900"
       d="m -582.59674,507.21524 c 0,0 0,288.23532 0,288.23532 0,0 -249.61909,144.11766 -249.61909,144.11766 0,0 -249.61917,-144.11766 -249.61917,-144.11766 0,0 0,-288.23532 0,-288.23532 0,0 249.61917,-144.11766 249.61917,-144.11766 0,0 249.61909,144.11766 249.61909,144.11766"
       style="fill:none;stroke:#0088aa;stroke-width:9;stroke-miterlimit:4;stroke-opacity:1" />
    <path
       transform="matrix(1.637509,0.06186,-0.06186,1.637509,-884.91215,-49.70588)"
       sodipodi:type="arc"
       style="fill:#aa0000;stroke:none"
       id="path1302"
       sodipodi:cx="197.14285"
       sodipodi:cy="320.93362"
       sodipodi:rx="44.285713"
       sodipodi:ry="44.285713"
       d="m 241.42857,320.93362 a 44.285713,44.285713 0 1 1 -88.57143,0 44.285713,44.285713 0 1 1 88.57143,0 z"
       inkscape:transform-center-y="-286.67884"
       inkscape:transform-center-x="-10.829759" />
    <path
       transform="matrix(1.637509,0.06186,-0.06186,1.637509,-884.91215,238.52944)"
       sodipodi:type="arc"
       style="fill:#0088aa"
       id="path3725"
       sodipodi:cx="197.14285"
       sodipodi:cy="320.93362"
       sodipodi:rx="44.285713"
       sodipodi:ry="44.285713"
       d="m 241.42857,320.93362 a 44.285713,44.285713 0 1 1 -88.57143,0 44.285713,44.285713 0 1 1 88.57143,0 z"
       inkscape:transform-center-y="-286.67884"
       inkscape:transform-center-x="-10.829759" />
    <path
       transform="matrix(1.637509,0.06186,-0.06186,1.637509,-1134.5313,382.6471)"
       sodipodi:type="arc"
       style="fill:#0088aa"
       id="path1155"
       sodipodi:cx="197.14285"
       sodipodi:cy="320.93362"
       sodipodi:rx="44.285713"
       sodipodi:ry="44.285713"
       d="m 241.42857,320.93362 a 44.285713,44.285713 0 1 1 -88.57143,0 44.285713,44.285713 0 1 1 88.57143,0 z"
       inkscape:transform-center-y="-286.67884"
       inkscape:transform-center-x="-10.829759" />
    <path
       transform="matrix(1.637509,0.06186,-0.06186,1.637509,-1384.1504,238.52944)"
       sodipodi:type="arc"
       style="fill:#0088aa"
       id="path5999"
       sodipodi:cx="197.14285"
       sodipodi:cy="320.93362"
       sodipodi:rx="44.285713"
       sodipodi:ry="44.285713"
       d="m 241.42857,320.93362 a 44.285713,44.285713 0 1 1 -88.57143,0 44.285713,44.285713 0 1 1 88.57143,0 z"
       inkscape:transform-center-y="-286.67884"
       inkscape:transform-center-x="-10.829759" />
    <path
       transform="matrix(1.637509,0.06186,-0.06186,1.637509,-1384.1504,-49.70587)"
       sodipodi:type="arc"
       style="fill:#0088aa"
       id="path9245"
       sodipodi:cx="197.14285"
       sodipodi:cy="320.93362"
       sodipodi:rx="44.285713"
       sodipodi:ry="44.285713"
       d="m 241.42857,320.93362 a 44.285713,44.285713 0 1 1 -88.57143,0 44.285713,44.285713 0 1 1 88.57143,0 z"
       inkscape:transform-center-y="-286.67884"
       inkscape:transform-center-x="-10.829759" />
    <path
       transform="matrix(1.637509,0.06186,-0.06186,1.637509,-1135.1861,-193.82354)"
       sodipodi:type="arc"
       style="fill:#0088aa"
       id="path7319"
       sodipodi:cx="197.14285"
       sodipodi:cy="320.93362"
       sodipodi:rx="44.285713"
       sodipodi:ry="44.285713"
       d="m 241.42857,320.93362 a 44.285713,44.285713 0 1 1 -88.57143,0 44.285713,44.285713 0 1 1 88.57143,0 z"
       inkscape:transform-center-y="-286.67884"
       inkscape:transform-center-x="-10.829759" />
    <path
       transform="matrix(1.1360558,0.04291666,-0.04291666,1.1360558,-1042.4077,262.11124)"
       sodipodi:type="arc"
       style="fill:#0088aa"
       id="path7319-5"
       sodipodi:cx="197.14285"
       sodipodi:cy="320.93362"
       sodipodi:rx="44.285713"
       sodipodi:ry="44.285713"
       d="m 241.42857,320.93362 a 44.285713,44.285713 0 1 1 -88.57143,0 44.285713,44.285713 0 1 1 88.57143,0 z"
       inkscape:transform-center-y="-198.88938"
       inkscape:transform-center-x="-7.5133541" />
    <path
       style="fill:none;stroke:#aa0000;stroke-width:0.54222822;stroke-miterlimit:4;stroke-opacity:1;stroke-dasharray:none"
       d="M -2470.9375 1159.7812 L -2471.0312 1181.4062 L -2500.4375 1164.7812 L -2471.2812 1181.7812 L -2500.8438 1199.2188 L -2471.0312 1182.1875 L -2470.75 1215.5625 L -2470.5938 1182.1875 L -2451.9688 1192.7188 C -2451.9581 1192.6564 -2451.9477 1192.5937 -2451.9375 1192.5312 L -2470.375 1181.7812 L -2455.4375 1173 C -2455.4745 1172.935 -2455.525 1172.8772 -2455.5625 1172.8125 L -2470.5938 1181.4062 L -2470.7812 1159.8438 C -2470.8341 1159.8237 -2470.8845 1159.801 -2470.9375 1159.7812 z "
       id="path4832-2"
       inkscape:export-filename="C:\Users\ltramma\Desktop\path3017.png"
       inkscape:export-xdpi="116.06734"
       inkscape:export-ydpi="116.06734" />
    <path
       inkscape:connector-curvature="0"
       id="path3900-1"
       d="m -2462.9489,1178.4512 c 0,0 0,21.3108 0,21.3108 0,0 -18.4556,10.6554 -18.4556,10.6554 0,0 -18.4557,-10.6554 -18.4557,-10.6554 0,0 0,-21.3108 0,-21.3108 0,0 18.4557,-10.6553 18.4557,-10.6553 0,0 18.4556,10.6553 18.4556,10.6553"
       style="fill:none;stroke:#0088aa;stroke-width:0.66541761;stroke-miterlimit:4;stroke-opacity:1"
       inkscape:export-filename="C:\Users\ltramma\Desktop\path3017.png"
       inkscape:export-xdpi="116.06734"
       inkscape:export-ydpi="116.06734" />
    <path
       transform="matrix(0.1210697,0.00457364,-0.00457364,0.1210697,-2485.3006,1137.2751)"
       sodipodi:type="arc"
       style="fill:#aa0000;stroke:none"
       id="path1302-6"
       sodipodi:cx="197.14285"
       sodipodi:cy="320.93362"
       sodipodi:rx="44.285713"
       sodipodi:ry="44.285713"
       d="m 241.42857,320.93362 a 44.285713,44.285713 0 1 1 -88.57143,0 44.285713,44.285713 0 1 1 88.57143,0 z"
       inkscape:transform-center-y="-286.67884"
       inkscape:transform-center-x="-10.829759"
       inkscape:export-filename="C:\Users\ltramma\Desktop\path3017.png"
       inkscape:export-xdpi="116.06734"
       inkscape:export-ydpi="116.06734" />
    <path
       transform="matrix(0.1210697,0.00457364,-0.00457364,0.1210697,-2485.3006,1158.5859)"
       sodipodi:type="arc"
       style="fill:#0088aa"
       id="path3725-8"
       sodipodi:cx="197.14285"
       sodipodi:cy="320.93362"
       sodipodi:rx="44.285713"
       sodipodi:ry="44.285713"
       d="m 241.42857,320.93362 a 44.285713,44.285713 0 1 1 -88.57143,0 44.285713,44.285713 0 1 1 88.57143,0 z"
       inkscape:transform-center-y="-286.67884"
       inkscape:transform-center-x="-10.829759"
       inkscape:export-filename="C:\Users\ltramma\Desktop\path3017.png"
       inkscape:export-xdpi="116.06734"
       inkscape:export-ydpi="116.06734" />
    <path
       transform="matrix(0.1210697,0.00457364,-0.00457364,0.1210697,-2503.7563,1169.2413)"
       sodipodi:type="arc"
       style="fill:#0088aa"
       id="path1155-5"
       sodipodi:cx="197.14285"
       sodipodi:cy="320.93362"
       sodipodi:rx="44.285713"
       sodipodi:ry="44.285713"
       d="m 241.42857,320.93362 a 44.285713,44.285713 0 1 1 -88.57143,0 44.285713,44.285713 0 1 1 88.57143,0 z"
       inkscape:transform-center-y="-286.67884"
       inkscape:transform-center-x="-10.829759"
       inkscape:export-filename="C:\Users\ltramma\Desktop\path3017.png"
       inkscape:export-xdpi="116.06734"
       inkscape:export-ydpi="116.06734" />
    <path
       transform="matrix(0.1210697,0.00457364,-0.00457364,0.1210697,-2522.212,1158.5859)"
       sodipodi:type="arc"
       style="fill:#0088aa"
       id="path5999-7"
       sodipodi:cx="197.14285"
       sodipodi:cy="320.93362"
       sodipodi:rx="44.285713"
       sodipodi:ry="44.285713"
       d="m 241.42857,320.93362 a 44.285713,44.285713 0 1 1 -88.57143,0 44.285713,44.285713 0 1 1 88.57143,0 z"
       inkscape:transform-center-y="-286.67884"
       inkscape:transform-center-x="-10.829759"
       inkscape:export-filename="C:\Users\ltramma\Desktop\path3017.png"
       inkscape:export-xdpi="116.06734"
       inkscape:export-ydpi="116.06734" />
    <path
       transform="matrix(0.1210697,0.00457364,-0.00457364,0.1210697,-2522.212,1137.2751)"
       sodipodi:type="arc"
       style="fill:#0088aa"
       id="path9245-6"
       sodipodi:cx="197.14285"
       sodipodi:cy="320.93362"
       sodipodi:rx="44.285713"
       sodipodi:ry="44.285713"
       d="m 241.42857,320.93362 a 44.285713,44.285713 0 1 1 -88.57143,0 44.285713,44.285713 0 1 1 88.57143,0 z"
       inkscape:transform-center-y="-286.67884"
       inkscape:transform-center-x="-10.829759"
       inkscape:export-filename="C:\Users\ltramma\Desktop\path3017.png"
       inkscape:export-xdpi="116.06734"
       inkscape:export-ydpi="116.06734" />
    <path
       transform="matrix(0.1210697,0.00457364,-0.00457364,0.1210697,-2503.8047,1127.6913)"
       sodipodi:type="arc"
       style="fill:#0088aa"
       id="path7319-1"
       sodipodi:cx="197.14285"
       sodipodi:cy="320.93362"
       sodipodi:rx="44.285713"
       sodipodi:ry="44.285713"
       d="m 241.42857,320.93362 a 44.285713,44.285713 0 1 1 -88.57143,0 44.285713,44.285713 0 1 1 88.57143,0 z"
       inkscape:transform-center-y="-286.67884"
       inkscape:transform-center-x="-10.829759"
       inkscape:export-filename="C:\Users\ltramma\Desktop\path3017.png"
       inkscape:export-xdpi="116.06734"
       inkscape:export-ydpi="116.06734" />
    <path
       transform="matrix(0.08399462,0.00317306,-0.00317306,0.08399462,-2500.0049,1162.1013)"
       sodipodi:type="arc"
       style="fill:#0088aa"
       id="path7319-5-8"
       sodipodi:cx="197.14285"
       sodipodi:cy="320.93362"
       sodipodi:rx="44.285713"
       sodipodi:ry="44.285713"
       d="m 241.42857,320.93362 a 44.285713,44.285713 0 1 1 -88.57143,0 44.285713,44.285713 0 1 1 88.57143,0 z"
       inkscape:transform-center-y="-198.88938"
       inkscape:transform-center-x="-7.5133541"
       inkscape:export-xdpi="116.06734"
       inkscape:export-ydpi="116.06734"
       inkscape:export-filename="C:\Users\ltramma\Desktop\path3017.png" />
    <path
       sodipodi:type="arc"
       style="fill:none;"
       id="path3017"
       sodipodi:cx="-2488.125"
       sodipodi:cy="1191.38"
       sodipodi:rx="33.30357"
       sodipodi:ry="33.30357"
       d="m -2454.8214,1191.38 a 33.30357,33.30357 0 1 1 -66.6072,0 33.30357,33.30357 0 1 1 66.6072,0 z"
       transform="matrix(0.93132593,0,0,0.93132593,-162.4768,77.352623)"
       inkscape:export-xdpi="116.06734"
       inkscape:export-ydpi="116.06734" />
    <circle
       style="fill:none;stroke:#000000;stroke-width:8.63281;stroke-miterlimit:4;stroke-dasharray:none;stroke-opacity:1"
       id="path65"
       cx="-827.42859"
       cy="632.85712"
       r="469.255" />
  </g>
</svg>
